HIERARCHY
ROOT Hips
{
  OFFSET 263.056 91.6644 -274.608
  CHANNELS 6 Xposition Yposition Zposition Zrotation Xrotation Yrotation
  JOINT LeftUpLeg
  {
    OFFSET 8.64259 1.95398 -2.38835
    CHANNELS 3 Zrotation Xrotation Yrotation
    JOINT LeftLeg
    {
      OFFSET 43.7702 0 0
      CHANNELS 3 Zrotation Xrotation Yrotation
      JOINT LeftFoot
      {
        OFFSET 40.6238 0 0
        CHANNELS 3 Zrotation Xrotation Yrotation
        JOINT LeftToeBase
        {
          OFFSET 12.7242 0 0
          CHANNELS 3 Zrotation Xrotation Yrotation
          End Site
          {
            OFFSET 0 0 0
          }
        }
      }
    }
  }
  JOINT RightUpLeg
  {
    OFFSET -8.2249 1.95398 -2.59336
    CHANNELS 3 Zrotation Xrotation Yrotation
    JOINT RightLeg
    {
      OFFSET 43.5653 0 0
      CHANNELS 3 Zrotation Xrotation Yrotation
      JOINT RightFoot
      {
        OFFSET 40.6238 0 0
        CHANNELS 3 Zrotation Xrotation Yrotation
        JOINT RightToeBase
        {
          OFFSET 12.7242 0 0
          CHANNELS 3 Zrotation Xrotation Yrotation
          End Site
          {
            OFFSET 0 0 0
          }
        }
      }
    }
  }
  JOINT Spine
  {
    OFFSET 0.165834 0.87714 6.61349
    CHANNELS 3 Zrotation Xrotation Yrotation
    JOINT Spine1
    {
      OFFSET 7.38963 1.71661e-005 0
      CHANNELS 3 Zrotation Xrotation Yrotation
      JOINT Spine2
      {
        OFFSET 11.9445 1.14441e-005 0
        CHANNELS 3 Zrotation Xrotation Yrotation
        JOINT Spine3
        {
          OFFSET 14.7254 4.19617e-005 0
          CHANNELS 3 Zrotation Xrotation Yrotation
          JOINT Spine4
          {
            OFFSET 10.9679 0 0
            CHANNELS 3 Zrotation Xrotation Yrotation
            JOINT RightShoulder
            {
              OFFSET 2.46616 -1.6653 3.69651
              CHANNELS 3 Zrotation Xrotation Yrotation
              JOINT RightArm
              {
                OFFSET 13.0012 0 0
                CHANNELS 3 Zrotation Xrotation Yrotation
                JOINT RightForeArm
                {
                  OFFSET 28.7848 1.52588e-005 0
                  CHANNELS 3 Zrotation Xrotation Yrotation
                  JOINT RightHand
                  {
                    OFFSET 26.5688 1.52588e-005 0
                    CHANNELS 3 Zrotation Xrotation Yrotation
                    End Site
                    {
                      OFFSET 0 0 0
                    }
                  }
                }
              }
            }
            JOINT LeftShoulder
            {
              OFFSET 2.38034 -1.29275 -3.7523
              CHANNELS 3 Zrotation Xrotation Yrotation
              JOINT LeftArm
              {
                OFFSET 16.3182 6.10352e-005 0
                CHANNELS 3 Zrotation Xrotation Yrotation
                JOINT LeftForeArm
                {
                  OFFSET 27.0901 0 0
                  CHANNELS 3 Zrotation Xrotation Yrotation
                  JOINT LeftHand
                  {
                    OFFSET 24.5451 1.52588e-005 0
                    CHANNELS 3 Zrotation Xrotation Yrotation
                    End Site
                    {
                      OFFSET 0 0 0
                    }
                  }
                }
              }
            }
            JOINT Neck
            {
              OFFSET 5.0226 -0.0266342 0
              CHANNELS 3 Zrotation Xrotation Yrotation
              JOINT Head
              {
                OFFSET 6.69364 2.86102e-005 0
                CHANNELS 3 Zrotation Xrotation Yrotation
                End Site
                {
                  OFFSET 0 0 0
                }
              }
            }
          }
        }
      }
    }
  }
}
MOTION
Frames:	11
Frame Time:	0.0416667
-58.4726 19.4781 38.1888 -4.27507 -11.4077 -6.40564 -168.449 5.44085 86.5503 -22.9133 14.7892 -5.63903 57.7482 4.81832 14.166 56.1078 52.8565 37.9937 178.487 12.4846 83.9599 -40.4801 -8.10076 -7.39495 76.7314 -5.67 -2.62816 79.4761 12.9248 23.6465 0.284691 7.81542 -91.513 11.2314 -0.137185 -2.99843 -0.442933 -0.268961 -2.98951 -22.9515 0.769911 -2.90123 -2.93886 0.769915 -2.90122 81.8457 -49.7317 -113.252 8.41147 -13.116 25.0575 -68.9363 28.234 -94.6064 -61.5038 -12.2191 20.6843 -90.2536 -29.7694 72.7495 17.6445 -16.2948 31.3928 33.6788 -15.6099 -130.833 58.3353 17.7483 25.6493 27.3235 1.0813 4.51372 29.0775 0.357483 3.33702 
-58.4282 17.6848 38.6531 -3.12719 -10.289 -6.17979 -168.962 4.32302 86.0908 -20.6478 14.3642 -5.07195 57.6431 5.19289 14.5867 56.6805 53.1421 37.185 178.278 11.5433 83.7353 -39.3779 -9.29621 -7.69624 77.3208 -5.82939 -2.66522 78.2674 11.622 21.3523 0.145766 7.70796 -91.4908 11.4432 -0.406124 -2.92839 -0.230858 -0.534559 -2.90771 -22.7399 0.492348 -2.91514 -2.72729 0.492357 -2.91515 81.8016 -50.2747 -113.117 9.99058 -12.7921 27.9718 -69.7668 29.9272 -94.5934 -61.5316 -12.4725 21.1928 -89.4707 -29.8995 74.2863 17.0698 -18.6329 34.5786 29.0115 -13.4116 -135.094 58.9418 17.1434 24.3049 28.9383 1.40635 3.65763 27.6649 0.847111 3.20477 
-58.3845 16.4584 38.9878 -3.45196 -9.66311 -5.63774 -168.882 3.78856 86.628 -19.9785 14.082 -4.92689 57.7112 4.63026 13.2518 54.5935 51.3624 39.4523 178.393 10.7809 84.1042 -38.5638 -10.2382 -7.82807 77.4428 -5.95057 -2.71014 76.904 10.1349 18.5733 0.166962 7.69084 -91.5345 11.4776 -0.384829 -3.01776 -0.196741 -0.517215 -2.99793 -22.7043 0.539491 -2.99399 -2.69159 0.539496 -2.99401 81.9745 -50.9686 -112.608 10.3709 -12.8716 29.8653 -71.8722 30.6373 -93.6444 -60.9568 -12.6122 21.8323 -89.8332 -31.1017 73.9986 20.7437 -22.4955 40.0712 29.3655 -14.2684 -139.107 59.4519 17.0891 23.9411 29.7199 1.59942 2.98007 27.2162 1.21715 3.0794 
-58.5286 15.3102 39.4207 -3.83618 -8.62085 -5.69673 -169.292 3.11054 86.3588 -18.4363 13.1105 -4.44369 57.8164 5.01515 13.3992 56.4146 51.8206 36.2934 178.436 10.4521 84.2487 -37.2917 -9.77568 -7.94378 77.2779 -5.79588 -2.64706 76.2928 10.2211 19.21 0.158852 7.59376 -91.5272 11.6713 -0.400172 -3.00214 -0.00298764 -0.531845 -2.98166 -22.5108 0.520174 -2.98371 -2.49812 0.520181 -2.98372 82.2206 -50.6166 -112.372 12.0423 -13.0889 31.4611 -70.8111 31.1247 -94.2575 -63.2074 -12.2175 20.056 -90.4875 -33.0807 73.4409 26.6674 -26.7727 46.2475 26.4674 -11.2803 -143.287 54.695 14.6066 22.372 30.2114 1.96501 3.81047 27.1252 1.0522 2.50266 
-58.6417 14.2633 39.7189 -4.5449 -8.16939 -5.60056 -169.647 2.22791 86.528 -17.3942 13.7618 -4.08849 57.4629 4.90498 14.0602 59.3221 52.4604 31.4122 178.249 9.79081 84.3211 -36.1798 -9.91964 -7.74654 77.1454 -5.77684 -2.64786 77.6672 10.706 19.5144 0.189163 7.55837 -91.4689 11.744 -0.313468 -2.8951 0.0698708 -0.440524 -2.87853 -22.44 0.570744 -2.85556 -2.42735 0.570755 -2.85558 81.9628 -51.5795 -112.406 12.9738 -13.466 32.7252 -71.3011 31.5442 -93.9438 -61.6209 -12.1643 20.6546 -90.248 -33.4758 74.003 30.4714 -30.3286 51.2056 23.3158 -7.11277 -145.868 58.4133 14.2758 19.8677 30.1665 2.02238 2.73679 27.7216 1.60031 2.70897 
-58.5533 13.2629 39.9662 -4.60185 -7.45265 -5.75841 -170.069 1.52168 86.4144 -16.0389 14.9184 -3.86984 57.2514 4.60646 13.7645 61.134 52.8075 28.4508 178.083 9.40153 84.1583 -35.3153 -9.69305 -7.76003 76.8291 -5.56213 -2.56569 78.2351 10.4159 18.4241 0.203061 7.48945 -91.4966 11.8816 -0.300603 -2.95222 0.207397 -0.430194 -2.93615 -22.3015 0.600157 -2.90619 -2.28888 0.600164 -2.9062 82.9898 -50.2194 -111.368 14.9129 -12.6893 33.7847 -71.6408 30.9991 -93.9447 -63.9252 -12.6688 20.6051 -90.6502 -34.6557 73.6535 32.9444 -32.3507 54.5672 22.1089 -5.01712 -147.254 58.4948 13.7992 19.0604 30.5517 2.67807 3.53474 27.6133 1.95003 2.93793 
-58.6242 12.4642 40.1557 -5.01676 -7.15386 -5.7879 -170.311 0.719138 86.6697 -15.1555 16.129 -3.75412 57.6482 4.38539 12.3866 61.3681 52.5906 27.7635 178.013 8.66189 84.2848 -34.1263 -8.34856 -7.64411 77.0718 -5.58329 -2.57103 77.8923 11.1792 20.5427 0.308312 7.41389 -91.5536 12.0342 -0.120349 -3.08627 0.359606 -0.255995 -3.07801 -22.1476 0.812345 -2.97997 -2.13492 0.812342 -2.97997 83.3524 -49.8723 -110.946 15.2731 -11.69 35.5424 -71.3745 30.8748 -94.6442 -65.2203 -12.9466 20.5554 -93.0578 -36.4902 70.048 42.3484 -34.189 62.5534 21.3782 -1.93521 -149.338 58.3039 13.8275 19.187 28.7611 2.29019 4.46824 29.4476 1.0898 2.14454 
-58.5481 11.8113 40.2527 -5.25711 -6.44181 -5.86021 -170.701 0.68493 86.6207 -14.5794 17.8816 -3.68725 57.2506 4.25685 13.2932 61.8553 52.7675 27.089 177.683 8.58419 84.042 -33.485 -8.4708 -7.22908 77.2785 -5.70954 -2.60573 78.9693 9.69884 16.1194 0.433799 7.37343 -91.5543 12.1185 0.127574 -3.11561 0.443803 -0.00960825 -3.1182 -22.064 1.05764 -2.93355 -2.05138 1.05764 -2.93354 85.4504 -49.7799 -107.813 16.0985 -11.911 35.4213 -72.0693 31.003 -93.9184 -65.861 -13.3595 21.0142 -93.6381 -37.3412 69.3565 49.4965 -36.7137 68.3391 21.8041 -1.32428 -151.752 53.6479 12.0746 18.2926 29.9389 1.88399 3.51951 28.4541 1.36914 3.30574 
-58.5822 11.4147 40.3722 -4.66854 -5.99173 -5.59059 -170.806 0.561316 87.0384 -13.8754 19.7717 -3.45773 57.2457 4.1977 13.1387 63.3054 52.7525 24.4515 177.345 8.55019 84.1938 -32.7565 -6.00744 -6.54172 74.2717 -4.26417 -2.06588 84.205 11.0255 16.2856 0.424084 7.28233 -91.6071 12.2993 0.0806728 -3.21722 0.624353 -0.0609268 -3.21767 -21.8814 1.0434 -3.04456 -1.86873 1.0434 -3.04456 86.1234 -49.0354 -107.021 16.5648 -12.5582 36.096 -71.7234 30.5039 -93.585 -65.8572 -13.1047 20.5553 -95.6414 -39.0336 66.6266 53.1629 -36.6844 70.9974 20.1187 1.60117 -152.592 56.3712 12.2369 17.357 27.7082 1.7954 5.05148 29.9174 0.529983 2.35711 
-58.6194 11.1287 40.4181 -4.33518 -5.45694 -5.44779 -171.037 1.0831 87.2611 -14.246 20.4817 -3.38496 57.7646 4.06249 11.9235 63.8574 52.2542 22.8485 177.307 8.31443 84.4082 -31.8799 -5.20884 -6.19532 74.8402 -4.54606 -2.18097 80.2414 9.10781 14.0864 0.474447 7.18622 -91.6191 12.4927 0.172152 -3.25387 0.81765 0.0288521 -3.25829 -21.6879 1.14166 -3.05207 -1.67527 1.14166 -3.05207 86.7896 -48.5614 -106.139 16.5748 -12.4834 37.0691 -68.7211 29.8567 -95.8094 -66.1048 -13.9006 21.6258 -97.2459 -39.9989 64.372 56.7823 -36.9394 73.672 18.961 3.59811 -153.773 57.1375 12.0707 16.7382 27.7381 1.61823 5.69402 29.5725 0.0410674 2.12956 
-58.6664 10.9232 40.4505 -4.37852 -5.21093 -5.37327 -171.188 0.823033 87.4004 -13.6232 20.7371 -3.3967 58.1217 4.35927 11.775 64.0736 51.669 21.708 177.338 7.89086 84.5547 -31.0638 -4.84661 -6.09512 75.595 -4.92637 -2.33426 80.2177 8.42341 12.4516 0.579103 7.10675 -91.6783 12.6535 0.349298 -3.39463 0.978156 0.199647 -3.4067 -21.5259 1.35289 -3.1332 -1.51326 1.35289 -3.13319 88.0479 -47.5607 -104.473 17.8531 -13.1008 37.8498 -76.8422 29.6939 -90.3026 -65.6191 -12.5529 19.9443 -98.933 -41.1486 62.1392 58.2106 -37.1598 74.2015 17.8672 5.25725 -154.061 57.2421 11.0042 14.8718 27.1756 1.37446 7.47671 29.4536 -0.927821 1.78091 
